<svg version="1.2" xmlns="http://www.w3.org/2000/svg" viewBox="0 0 136 46" width="136" height="46">
	<title>logo</title>
	<style>
		tspan { white-space:pre } 
		.s0 { fill: #00acb1 } 
		.s1 { fill: #ffffff } 
		.t2 { font-size: 24px;fill: #ffffff;font-weight: 700;font-family: "Inter-Bold", "Inter" } 
	</style>
	<path fill-rule="evenodd" class="s0" d="m16 2h13c1.1 0 2 0.9 2 2v38c0 1.1-0.9 2-2 2h-13c-1.1 0-2-0.9-2-2v-38c0-1.1 0.9-2 2-2z"/>
	<path fill-rule="evenodd" class="s0" d="m2 15h12c1.1 0 2 0.9 2 2v13c0 1.1-0.9 2-2 2h-12c-1.1 0-2-0.9-2-2v-13c0-1.1 0.9-2 2-2z"/>
	<path class="s1" d="m36.4 12.8c-0.4-0.7-1.3-0.6-1.6 0.2-1.2 3.3-4 5.6-7.6 6.1l-4.4 0.7c-5.9 0.8-10 6.4-9.1 12.4q0.1 0.6 0.3 1.1c3.1-3.1 7.9-6 15.2-7.1 0.5-0.1 0.9 0.3 1 0.8 0.1 0.5-0.3 0.9-0.7 1-14 2.1-18.6 11.6-19.5 15.1-0.2 1 0.4 2 1.3 2.2 1 0.3 2-0.3 2.2-1.3 0.1-0.2 0.8-2.9 3.3-5.7 2.1 2.2 5.9 4.1 10.3 2.9 8.6-1.9 13.6-10.8 12.2-20.5-0.5-2.8-1.5-5.7-2.9-7.9z"/>
	<text id="Dalal" style="transform: matrix(1.51,0,0,1.493,48.036,13.906)" >
		<tspan x="0" y="17.5" class="t2">D</tspan><tspan  y="17.5" class="t2">a</tspan><tspan  y="17.5" class="t2">l</tspan><tspan  y="17.5" class="t2">a</tspan><tspan  y="17.5" class="t2">l
</tspan>
	</text>
</svg>